<svg width="840" height="180" viewBox="0 0 840 180" fill="none" xmlns="http://www.w3.org/2000/svg">
<rect x="0.5" y="0.5" width="839" height="179" rx="14.5" fill="#F6F6F6" stroke="#FF0000"/>
<path d="M412.5 75C409.75 75 407.5 77.25 407.5 80C407.5 82.75 409.75 85 412.5 85C415.25 85 417.5 82.75 417.5 80" stroke="#FF0000" stroke-width="3" stroke-linecap="round" stroke-linejoin="round"/>
<path d="M395 92.475V97.5C395 110 400 115 412.5 115H427.5C440 115 445 110 445 97.5V85" stroke="#FF0000" stroke-width="3" stroke-linecap="round" stroke-linejoin="round"/>
<path d="M422.5 65H412.5C400 65 395 70 395 82.5" stroke="#FF0000" stroke-width="3" stroke-linecap="round" stroke-linejoin="round"/>
<path d="M429.375 72.5H443.125" stroke="#FF0000" stroke-width="3" stroke-linecap="round"/>
<path d="M436.25 79.375V65.625" stroke="#FF0000" stroke-width="3" stroke-linecap="round"/>
<path d="M396.675 107.375L409 99.1001C410.975 97.7751 413.825 97.9251 415.6 99.4501L416.425 100.175C418.375 101.85 421.525 101.85 423.475 100.175L433.875 91.2501C435.825 89.5751 438.975 89.5751 440.925 91.2501L445 94.7501" stroke="#FF0000" stroke-width="3" stroke-linecap="round" stroke-linejoin="round"/>
<path d="M220.7 134.3C220.7 134.86 220.647 135.4 220.54 135.92C220.447 136.427 220.347 136.953 220.24 137.5C220.72 137.233 221.193 136.973 221.66 136.72C222.127 136.467 222.633 136.247 223.18 136.06L223.3 136.02L223.86 137.7L223.7 137.76C223.167 137.96 222.633 138.093 222.1 138.16C221.567 138.213 221.02 138.26 220.46 138.3C220.9 138.673 221.313 139.04 221.7 139.4C222.087 139.747 222.447 140.153 222.78 140.62L222.88 140.76L221.42 141.78L221.34 141.66C221.02 141.18 220.74 140.707 220.5 140.24C220.273 139.76 220.04 139.267 219.8 138.76C219.56 139.267 219.32 139.76 219.08 140.24C218.853 140.707 218.58 141.18 218.26 141.66L218.18 141.78L216.72 140.76L216.82 140.62C217.153 140.153 217.513 139.747 217.9 139.4C218.287 139.04 218.7 138.673 219.14 138.3C218.58 138.26 218.033 138.213 217.5 138.16C216.967 138.093 216.433 137.96 215.9 137.76L215.74 137.7L216.3 136.02L216.42 136.06C216.967 136.247 217.473 136.467 217.94 136.72C218.407 136.973 218.88 137.233 219.36 137.5C219.253 136.953 219.147 136.427 219.04 135.92C218.947 135.4 218.9 134.86 218.9 134.3V134.14H220.7V134.3ZM225.769 141.06C225.769 139.873 225.943 138.827 226.289 137.92C226.649 137.013 227.129 136.26 227.729 135.66C228.343 135.047 229.049 134.587 229.849 134.28C230.663 133.973 231.523 133.82 232.429 133.82C233.323 133.82 234.163 133.973 234.949 134.28C235.749 134.587 236.449 135.047 237.049 135.66C237.649 136.26 238.123 137.013 238.469 137.92C238.829 138.827 239.009 139.873 239.009 141.06C239.009 142.247 238.829 143.293 238.469 144.2C238.123 145.107 237.649 145.867 237.049 146.48C236.449 147.08 235.749 147.533 234.949 147.84C234.163 148.147 233.323 148.3 232.429 148.3C231.523 148.3 230.663 148.147 229.849 147.84C229.049 147.533 228.343 147.08 227.729 146.48C227.129 145.867 226.649 145.107 226.289 144.2C225.943 143.293 225.769 142.247 225.769 141.06ZM227.809 141.06C227.809 141.9 227.916 142.667 228.129 143.36C228.343 144.04 228.643 144.62 229.029 145.1C229.429 145.58 229.909 145.953 230.469 146.22C231.043 146.473 231.683 146.6 232.389 146.6C233.096 146.6 233.729 146.473 234.289 146.22C234.849 145.953 235.323 145.58 235.709 145.1C236.109 144.62 236.416 144.04 236.629 143.36C236.843 142.667 236.949 141.9 236.949 141.06C236.949 140.22 236.843 139.46 236.629 138.78C236.416 138.087 236.109 137.5 235.709 137.02C235.323 136.54 234.849 136.173 234.289 135.92C233.729 135.653 233.096 135.52 232.389 135.52C231.683 135.52 231.043 135.653 230.469 135.92C229.909 136.173 229.429 136.54 229.029 137.02C228.643 137.5 228.343 138.087 228.129 138.78C227.916 139.46 227.809 140.22 227.809 141.06ZM243.456 138.8C243.869 138.467 244.349 138.213 244.896 138.04C245.456 137.853 245.989 137.76 246.496 137.76C247.989 137.76 249.116 138.22 249.876 139.14C250.649 140.047 251.036 141.313 251.036 142.94C251.036 143.633 250.942 144.3 250.756 144.94C250.569 145.58 250.276 146.147 249.876 146.64C249.489 147.133 248.996 147.527 248.396 147.82C247.796 148.113 247.082 148.26 246.256 148.26C245.309 148.26 244.522 148.087 243.896 147.74C243.269 147.393 242.769 146.92 242.396 146.32C242.036 145.72 241.782 145.02 241.636 144.22C241.489 143.42 241.416 142.573 241.416 141.68C241.416 140.52 241.496 139.44 241.656 138.44C241.829 137.44 242.136 136.56 242.576 135.8C243.016 135.04 243.622 134.413 244.396 133.92C245.182 133.413 246.189 133.073 247.416 132.9C247.776 132.847 248.089 132.807 248.356 132.78C248.636 132.74 248.876 132.707 249.076 132.68C249.289 132.653 249.482 132.627 249.656 132.6C249.829 132.56 250.009 132.52 250.196 132.48L250.396 134.16C250.302 134.187 250.202 134.207 250.096 134.22C250.002 134.233 249.862 134.253 249.676 134.28C249.502 134.307 249.262 134.34 248.956 134.38C248.662 134.42 248.276 134.467 247.796 134.52C246.476 134.667 245.462 135.067 244.756 135.72C244.049 136.373 243.616 137.4 243.456 138.8ZM243.336 141.98C243.336 142.607 243.376 143.2 243.456 143.76C243.549 144.32 243.702 144.813 243.916 145.24C244.142 145.667 244.442 146.007 244.816 146.26C245.189 146.5 245.669 146.62 246.256 146.62C246.762 146.62 247.196 146.527 247.556 146.34C247.916 146.14 248.209 145.873 248.436 145.54C248.662 145.207 248.829 144.82 248.936 144.38C249.042 143.927 249.096 143.447 249.096 142.94C249.096 142.487 249.049 142.047 248.956 141.62C248.876 141.193 248.722 140.813 248.496 140.48C248.269 140.147 247.962 139.88 247.576 139.68C247.202 139.48 246.729 139.38 246.156 139.38C245.596 139.38 245.056 139.5 244.536 139.74C244.029 139.98 243.636 140.273 243.356 140.62C243.342 140.767 243.336 140.973 243.336 141.24C243.336 141.507 243.336 141.753 243.336 141.98ZM255.07 139.16H252.39V137.6H256.93V141.58C257.037 141.553 257.177 141.527 257.35 141.5C257.537 141.473 257.73 141.447 257.93 141.42C258.144 141.393 258.364 141.373 258.59 141.36C258.817 141.347 259.03 141.34 259.23 141.34C259.804 141.34 260.344 141.407 260.85 141.54C261.357 141.66 261.797 141.86 262.17 142.14C262.557 142.407 262.864 142.76 263.09 143.2C263.317 143.627 263.43 144.14 263.43 144.74C263.43 145.367 263.324 145.9 263.11 146.34C262.897 146.78 262.59 147.14 262.19 147.42C261.79 147.7 261.31 147.9 260.75 148.02C260.204 148.153 259.59 148.22 258.91 148.22C258.244 148.22 257.59 148.18 256.95 148.1C256.31 148.033 255.684 147.927 255.07 147.78V139.16ZM259.01 146.7C259.797 146.7 260.417 146.547 260.87 146.24C261.324 145.933 261.55 145.44 261.55 144.76C261.55 144.427 261.484 144.14 261.35 143.9C261.217 143.66 261.03 143.467 260.79 143.32C260.564 143.16 260.297 143.047 259.99 142.98C259.684 142.9 259.357 142.86 259.01 142.86C258.65 142.86 258.277 142.873 257.89 142.9C257.517 142.913 257.197 142.953 256.93 143.02V146.6C257.01 146.613 257.13 146.627 257.29 146.64C257.45 146.653 257.624 146.667 257.81 146.68C258.01 146.68 258.21 146.687 258.41 146.7C258.624 146.7 258.824 146.7 259.01 146.7ZM265.043 142.82C265.043 141.9 265.177 141.1 265.443 140.42C265.71 139.727 266.063 139.153 266.503 138.7C266.943 138.247 267.45 137.907 268.023 137.68C268.597 137.453 269.183 137.34 269.783 137.34C271.183 137.34 272.257 137.78 273.003 138.66C273.75 139.527 274.123 140.853 274.123 142.64C274.123 142.72 274.123 142.827 274.123 142.96C274.123 143.08 274.117 143.193 274.103 143.3H266.983C267.063 144.38 267.377 145.2 267.923 145.76C268.47 146.32 269.323 146.6 270.483 146.6C271.137 146.6 271.683 146.547 272.123 146.44C272.577 146.32 272.917 146.207 273.143 146.1L273.403 147.66C273.177 147.78 272.777 147.907 272.203 148.04C271.643 148.173 271.003 148.24 270.283 148.24C269.377 148.24 268.59 148.107 267.923 147.84C267.27 147.56 266.73 147.18 266.303 146.7C265.877 146.22 265.557 145.653 265.343 145C265.143 144.333 265.043 143.607 265.043 142.82ZM272.183 141.8C272.197 140.96 271.983 140.273 271.543 139.74C271.117 139.193 270.523 138.92 269.763 138.92C269.337 138.92 268.957 139.007 268.623 139.18C268.303 139.34 268.03 139.553 267.803 139.82C267.577 140.087 267.397 140.393 267.263 140.74C267.143 141.087 267.063 141.44 267.023 141.8H272.183ZM267.843 135.68C267.537 135.68 267.263 135.573 267.023 135.36C266.797 135.133 266.683 134.847 266.683 134.5C266.683 134.153 266.797 133.873 267.023 133.66C267.263 133.433 267.537 133.32 267.843 133.32C268.15 133.32 268.417 133.433 268.643 133.66C268.883 133.873 269.003 134.153 269.003 134.5C269.003 134.847 268.883 135.133 268.643 135.36C268.417 135.573 268.15 135.68 267.843 135.68ZM271.643 135.68C271.337 135.68 271.063 135.573 270.823 135.36C270.597 135.133 270.483 134.847 270.483 134.5C270.483 134.153 270.597 133.873 270.823 133.66C271.063 133.433 271.337 133.32 271.643 133.32C271.95 133.32 272.217 133.433 272.443 133.66C272.683 133.873 272.803 134.153 272.803 134.5C272.803 134.847 272.683 135.133 272.443 135.36C272.217 135.573 271.95 135.68 271.643 135.68ZM278.775 140.34C278.642 141.66 278.542 142.98 278.475 144.3C278.409 145.607 278.355 146.84 278.315 148H276.535C276.562 147.187 276.602 146.34 276.655 145.46C276.709 144.567 276.769 143.673 276.835 142.78C276.902 141.873 276.975 140.987 277.055 140.12C277.135 139.24 277.222 138.4 277.315 137.6H279.015C279.442 138.293 279.942 139.247 280.515 140.46C281.089 141.66 281.749 143.047 282.495 144.62C283.242 143.047 283.902 141.66 284.475 140.46C285.049 139.247 285.549 138.293 285.975 137.6H287.695C287.789 138.4 287.875 139.24 287.955 140.12C288.035 140.987 288.109 141.873 288.175 142.78C288.242 143.673 288.302 144.567 288.355 145.46C288.409 146.34 288.449 147.187 288.475 148H286.635C286.595 146.84 286.542 145.607 286.475 144.3C286.409 142.98 286.309 141.66 286.175 140.34C285.962 140.753 285.715 141.253 285.435 141.84C285.155 142.413 284.875 143 284.595 143.6C284.329 144.2 284.075 144.773 283.835 145.32C283.595 145.867 283.409 146.3 283.275 146.62H281.715C281.569 146.287 281.369 145.847 281.115 145.3C280.875 144.753 280.615 144.18 280.335 143.58C280.069 142.967 279.795 142.373 279.515 141.8C279.235 141.213 278.989 140.727 278.775 140.34ZM297.353 142.8C297.353 143.387 297.446 143.907 297.633 144.36C297.833 144.813 298.106 145.2 298.453 145.52C298.8 145.827 299.206 146.067 299.673 146.24C300.153 146.4 300.666 146.487 301.213 146.5V139.1C300.666 139.113 300.153 139.207 299.673 139.38C299.206 139.553 298.8 139.8 298.453 140.12C298.106 140.427 297.833 140.807 297.633 141.26C297.446 141.713 297.353 142.227 297.353 142.8ZM303.013 146.5C303.56 146.487 304.066 146.4 304.533 146.24C305.013 146.067 305.426 145.827 305.773 145.52C306.12 145.2 306.386 144.813 306.573 144.36C306.773 143.907 306.873 143.387 306.873 142.8C306.873 142.227 306.773 141.713 306.573 141.26C306.386 140.807 306.12 140.427 305.773 140.12C305.426 139.8 305.013 139.553 304.533 139.38C304.066 139.207 303.56 139.113 303.013 139.1V146.5ZM303.013 151.7H301.213V148.06C300.426 148.047 299.686 147.92 298.993 147.68C298.3 147.44 297.686 147.1 297.153 146.66C296.633 146.207 296.22 145.66 295.913 145.02C295.606 144.367 295.453 143.627 295.453 142.8C295.453 141.973 295.606 141.24 295.913 140.6C296.22 139.947 296.633 139.4 297.153 138.96C297.686 138.507 298.3 138.16 298.993 137.92C299.686 137.68 300.426 137.553 301.213 137.54V132.8L303.013 132.48V137.54C303.786 137.553 304.52 137.68 305.213 137.92C305.92 138.16 306.533 138.507 307.053 138.96C307.586 139.4 308.006 139.947 308.313 140.6C308.62 141.24 308.773 141.973 308.773 142.8C308.773 143.627 308.62 144.367 308.313 145.02C308.006 145.66 307.586 146.207 307.053 146.66C306.533 147.1 305.92 147.44 305.213 147.68C304.52 147.92 303.786 148.047 303.013 148.06V151.7ZM314.886 146.66C315.326 146.66 315.712 146.653 316.046 146.64C316.392 146.613 316.679 146.573 316.906 146.52V143.42C316.772 143.353 316.552 143.3 316.246 143.26C315.952 143.207 315.592 143.18 315.166 143.18C314.886 143.18 314.586 143.2 314.266 143.24C313.959 143.28 313.672 143.367 313.406 143.5C313.152 143.62 312.939 143.793 312.766 144.02C312.592 144.233 312.506 144.52 312.506 144.88C312.506 145.547 312.719 146.013 313.146 146.28C313.572 146.533 314.152 146.66 314.886 146.66ZM314.726 137.34C315.472 137.34 316.099 137.44 316.606 137.64C317.126 137.827 317.539 138.1 317.846 138.46C318.166 138.807 318.392 139.227 318.526 139.72C318.659 140.2 318.726 140.733 318.726 141.32V147.82C318.566 147.847 318.339 147.887 318.046 147.94C317.766 147.98 317.446 148.02 317.086 148.06C316.726 148.1 316.332 148.133 315.906 148.16C315.492 148.2 315.079 148.22 314.666 148.22C314.079 148.22 313.539 148.16 313.046 148.04C312.552 147.92 312.126 147.733 311.766 147.48C311.406 147.213 311.126 146.867 310.926 146.44C310.726 146.013 310.626 145.5 310.626 144.9C310.626 144.327 310.739 143.833 310.966 143.42C311.206 143.007 311.526 142.673 311.926 142.42C312.326 142.167 312.792 141.98 313.326 141.86C313.859 141.74 314.419 141.68 315.006 141.68C315.192 141.68 315.386 141.693 315.586 141.72C315.786 141.733 315.972 141.76 316.146 141.8C316.332 141.827 316.492 141.853 316.626 141.88C316.759 141.907 316.852 141.927 316.906 141.94V141.42C316.906 141.113 316.872 140.813 316.806 140.52C316.739 140.213 316.619 139.947 316.446 139.72C316.272 139.48 316.032 139.293 315.726 139.16C315.432 139.013 315.046 138.94 314.566 138.94C313.952 138.94 313.412 138.987 312.946 139.08C312.492 139.16 312.152 139.247 311.926 139.34L311.706 137.8C311.946 137.693 312.346 137.593 312.906 137.5C313.466 137.393 314.072 137.34 314.726 137.34ZM330.555 137.6V148H328.755V140.08C328.355 140.587 327.915 141.18 327.435 141.86C326.955 142.54 326.475 143.247 325.995 143.98C325.515 144.7 325.055 145.413 324.615 146.12C324.175 146.827 323.795 147.453 323.475 148H321.815V137.6H323.615V145.08C323.962 144.507 324.355 143.88 324.795 143.2C325.235 142.507 325.688 141.827 326.155 141.16C326.635 140.48 327.108 139.833 327.575 139.22C328.055 138.593 328.502 138.053 328.915 137.6H330.555ZM326.195 135.92C325.355 135.92 324.668 135.707 324.135 135.28C323.615 134.853 323.302 134.26 323.195 133.5L324.615 133.12C324.722 133.547 324.902 133.893 325.155 134.16C325.408 134.427 325.755 134.56 326.195 134.56C326.635 134.56 326.982 134.427 327.235 134.16C327.488 133.893 327.668 133.547 327.775 133.12L329.175 133.5C329.068 134.26 328.755 134.853 328.235 135.28C327.715 135.707 327.035 135.92 326.195 135.92ZM337.368 139.16C337.368 139.6 337.355 140.073 337.328 140.58C337.315 141.073 337.282 141.573 337.228 142.08C337.175 142.573 337.102 143.067 337.008 143.56C336.915 144.04 336.795 144.493 336.648 144.92C336.502 145.347 336.315 145.747 336.088 146.12C335.875 146.493 335.608 146.827 335.288 147.12C334.968 147.4 334.595 147.64 334.168 147.84C333.742 148.027 333.242 148.147 332.668 148.2L332.408 146.64C333.062 146.507 333.575 146.26 333.948 145.9C334.335 145.54 334.642 145.1 334.868 144.58C335.068 144.127 335.215 143.613 335.308 143.04C335.402 142.467 335.468 141.873 335.508 141.26C335.548 140.633 335.568 140.007 335.568 139.38C335.582 138.753 335.588 138.16 335.588 137.6H342.508V148H340.648V139.16H337.368ZM349.222 146.66C349.662 146.66 350.048 146.653 350.382 146.64C350.728 146.613 351.015 146.573 351.242 146.52V143.42C351.108 143.353 350.888 143.3 350.582 143.26C350.288 143.207 349.928 143.18 349.502 143.18C349.222 143.18 348.922 143.2 348.602 143.24C348.295 143.28 348.008 143.367 347.742 143.5C347.488 143.62 347.275 143.793 347.102 144.02C346.928 144.233 346.842 144.52 346.842 144.88C346.842 145.547 347.055 146.013 347.482 146.28C347.908 146.533 348.488 146.66 349.222 146.66ZM349.062 137.34C349.808 137.34 350.435 137.44 350.942 137.64C351.462 137.827 351.875 138.1 352.182 138.46C352.502 138.807 352.728 139.227 352.862 139.72C352.995 140.2 353.062 140.733 353.062 141.32V147.82C352.902 147.847 352.675 147.887 352.382 147.94C352.102 147.98 351.782 148.02 351.422 148.06C351.062 148.1 350.668 148.133 350.242 148.16C349.828 148.2 349.415 148.22 349.002 148.22C348.415 148.22 347.875 148.16 347.382 148.04C346.888 147.92 346.462 147.733 346.102 147.48C345.742 147.213 345.462 146.867 345.262 146.44C345.062 146.013 344.962 145.5 344.962 144.9C344.962 144.327 345.075 143.833 345.302 143.42C345.542 143.007 345.862 142.673 346.262 142.42C346.662 142.167 347.128 141.98 347.662 141.86C348.195 141.74 348.755 141.68 349.342 141.68C349.528 141.68 349.722 141.693 349.922 141.72C350.122 141.733 350.308 141.76 350.482 141.8C350.668 141.827 350.828 141.853 350.962 141.88C351.095 141.907 351.188 141.927 351.242 141.94V141.42C351.242 141.113 351.208 140.813 351.142 140.52C351.075 140.213 350.955 139.947 350.782 139.72C350.608 139.48 350.368 139.293 350.062 139.16C349.768 139.013 349.382 138.94 348.902 138.94C348.288 138.94 347.748 138.987 347.282 139.08C346.828 139.16 346.488 139.247 346.262 139.34L346.042 137.8C346.282 137.693 346.682 137.593 347.242 137.5C347.802 137.393 348.408 137.34 349.062 137.34ZM369.3 148H367.44V143.4H362.64V148H360.78V137.6H362.64V141.84H367.44V137.6H369.3V148ZM371.918 142.82C371.918 141.9 372.052 141.1 372.318 140.42C372.585 139.727 372.938 139.153 373.378 138.7C373.818 138.247 374.325 137.907 374.898 137.68C375.472 137.453 376.058 137.34 376.658 137.34C378.058 137.34 379.132 137.78 379.878 138.66C380.625 139.527 380.998 140.853 380.998 142.64C380.998 142.72 380.998 142.827 380.998 142.96C380.998 143.08 380.992 143.193 380.978 143.3H373.858C373.938 144.38 374.252 145.2 374.798 145.76C375.345 146.32 376.198 146.6 377.358 146.6C378.012 146.6 378.558 146.547 378.998 146.44C379.452 146.32 379.792 146.207 380.018 146.1L380.278 147.66C380.052 147.78 379.652 147.907 379.078 148.04C378.518 148.173 377.878 148.24 377.158 148.24C376.252 148.24 375.465 148.107 374.798 147.84C374.145 147.56 373.605 147.18 373.178 146.7C372.752 146.22 372.432 145.653 372.218 145C372.018 144.333 371.918 143.607 371.918 142.82ZM379.058 141.8C379.072 140.96 378.858 140.273 378.418 139.74C377.992 139.193 377.398 138.92 376.638 138.92C376.212 138.92 375.832 139.007 375.498 139.18C375.178 139.34 374.905 139.553 374.678 139.82C374.452 140.087 374.272 140.393 374.138 140.74C374.018 141.087 373.938 141.44 373.898 141.8H379.058ZM387.019 146.48H388.139C388.579 145.84 388.926 145.18 389.179 144.5C389.446 143.82 389.646 143.12 389.779 142.4C389.913 141.667 389.999 140.907 390.039 140.12C390.079 139.32 390.106 138.48 390.119 137.6H396.939V146.48H398.339V150.9H396.579V148H388.779V150.9H387.019V146.48ZM395.079 146.48V139.16H391.819C391.806 139.787 391.773 140.42 391.719 141.06C391.666 141.687 391.579 142.313 391.459 142.94C391.339 143.553 391.166 144.16 390.939 144.76C390.726 145.347 390.453 145.92 390.119 146.48H395.079ZM409.53 142.8C409.53 143.627 409.41 144.373 409.17 145.04C408.93 145.707 408.59 146.28 408.15 146.76C407.723 147.24 407.21 147.613 406.61 147.88C406.01 148.133 405.357 148.26 404.65 148.26C403.943 148.26 403.29 148.133 402.69 147.88C402.09 147.613 401.57 147.24 401.13 146.76C400.703 146.28 400.37 145.707 400.13 145.04C399.89 144.373 399.77 143.627 399.77 142.8C399.77 141.987 399.89 141.247 400.13 140.58C400.37 139.9 400.703 139.32 401.13 138.84C401.57 138.36 402.09 137.993 402.69 137.74C403.29 137.473 403.943 137.34 404.65 137.34C405.357 137.34 406.01 137.473 406.61 137.74C407.21 137.993 407.723 138.36 408.15 138.84C408.59 139.32 408.93 139.9 409.17 140.58C409.41 141.247 409.53 141.987 409.53 142.8ZM407.59 142.8C407.59 141.627 407.323 140.7 406.79 140.02C406.27 139.327 405.557 138.98 404.65 138.98C403.743 138.98 403.023 139.327 402.49 140.02C401.97 140.7 401.71 141.627 401.71 142.8C401.71 143.973 401.97 144.907 402.49 145.6C403.023 146.28 403.743 146.62 404.65 146.62C405.557 146.62 406.27 146.28 406.79 145.6C407.323 144.907 407.59 143.973 407.59 142.8ZM415.767 139.16C415.767 139.6 415.754 140.073 415.727 140.58C415.714 141.073 415.68 141.573 415.627 142.08C415.574 142.573 415.5 143.067 415.407 143.56C415.314 144.04 415.194 144.493 415.047 144.92C414.9 145.347 414.714 145.747 414.487 146.12C414.274 146.493 414.007 146.827 413.687 147.12C413.367 147.4 412.994 147.64 412.567 147.84C412.14 148.027 411.64 148.147 411.067 148.2L410.807 146.64C411.46 146.507 411.974 146.26 412.347 145.9C412.734 145.54 413.04 145.1 413.267 144.58C413.467 144.127 413.614 143.613 413.707 143.04C413.8 142.467 413.867 141.873 413.907 141.26C413.947 140.633 413.967 140.007 413.967 139.38C413.98 138.753 413.987 138.16 413.987 137.6H420.907V148H419.047V139.16H415.767ZM436.92 137.6C436.653 137.933 436.353 138.3 436.02 138.7C435.687 139.087 435.34 139.493 434.98 139.92C434.62 140.333 434.253 140.747 433.88 141.16C433.52 141.573 433.173 141.967 432.84 142.34C433.24 142.727 433.653 143.147 434.08 143.6C434.507 144.053 434.92 144.527 435.32 145.02C435.733 145.5 436.127 146 436.5 146.52C436.873 147.027 437.2 147.52 437.48 148H435.4C435.12 147.56 434.793 147.1 434.42 146.62C434.06 146.127 433.68 145.653 433.28 145.2C432.893 144.747 432.5 144.327 432.1 143.94C431.713 143.54 431.353 143.213 431.02 142.96V148H429.24V142.96C428.907 143.213 428.54 143.54 428.14 143.94C427.753 144.327 427.36 144.747 426.96 145.2C426.573 145.653 426.193 146.127 425.82 146.62C425.46 147.1 425.14 147.56 424.86 148H422.8C423.08 147.52 423.4 147.027 423.76 146.52C424.133 146.013 424.52 145.52 424.92 145.04C425.333 144.547 425.753 144.073 426.18 143.62C426.607 143.167 427.02 142.747 427.42 142.36C427.087 141.987 426.733 141.593 426.36 141.18C426 140.767 425.64 140.353 425.28 139.94C424.92 139.513 424.573 139.107 424.24 138.72C423.907 138.32 423.6 137.947 423.32 137.6H425.38C425.86 138.2 426.413 138.867 427.04 139.6C427.667 140.333 428.4 141.18 429.24 142.14V137.6H431.02V142.14C431.86 141.18 432.593 140.333 433.22 139.6C433.847 138.867 434.4 138.2 434.88 137.6H436.92ZM438.247 142.82C438.247 141.9 438.38 141.1 438.647 140.42C438.913 139.727 439.267 139.153 439.707 138.7C440.147 138.247 440.653 137.907 441.227 137.68C441.8 137.453 442.387 137.34 442.987 137.34C444.387 137.34 445.46 137.78 446.207 138.66C446.953 139.527 447.327 140.853 447.327 142.64C447.327 142.72 447.327 142.827 447.327 142.96C447.327 143.08 447.32 143.193 447.307 143.3H440.187C440.267 144.38 440.58 145.2 441.127 145.76C441.673 146.32 442.527 146.6 443.687 146.6C444.34 146.6 444.887 146.547 445.327 146.44C445.78 146.32 446.12 146.207 446.347 146.1L446.607 147.66C446.38 147.78 445.98 147.907 445.407 148.04C444.847 148.173 444.207 148.24 443.487 148.24C442.58 148.24 441.793 148.107 441.127 147.84C440.473 147.56 439.933 147.18 439.507 146.7C439.08 146.22 438.76 145.653 438.547 145C438.347 144.333 438.247 143.607 438.247 142.82ZM445.387 141.8C445.4 140.96 445.187 140.273 444.747 139.74C444.32 139.193 443.727 138.92 442.967 138.92C442.54 138.92 442.16 139.007 441.827 139.18C441.507 139.34 441.233 139.553 441.007 139.82C440.78 140.087 440.6 140.393 440.467 140.74C440.347 141.087 440.267 141.44 440.227 141.8H445.387ZM458.518 148H456.658V143.4H451.858V148H449.998V137.6H451.858V141.84H456.658V137.6H458.518V148ZM474.706 148H472.846V139.16H468.206V148H466.346V137.6H474.706V148ZM485.129 142.82C485.129 141.607 484.829 140.673 484.229 140.02C483.629 139.367 482.829 139.04 481.829 139.04C481.269 139.04 480.829 139.06 480.509 139.1C480.202 139.14 479.955 139.187 479.769 139.24V145.8C479.995 145.987 480.322 146.167 480.749 146.34C481.175 146.513 481.642 146.6 482.149 146.6C482.682 146.6 483.135 146.507 483.509 146.32C483.895 146.12 484.209 145.853 484.449 145.52C484.689 145.173 484.862 144.773 484.969 144.32C485.075 143.853 485.129 143.353 485.129 142.82ZM487.069 142.82C487.069 143.607 486.962 144.333 486.749 145C486.549 145.667 486.249 146.24 485.849 146.72C485.449 147.2 484.955 147.573 484.369 147.84C483.795 148.107 483.135 148.24 482.389 148.24C481.789 148.24 481.255 148.16 480.789 148C480.335 147.84 479.995 147.687 479.769 147.54V151.7H477.909V137.92C478.349 137.813 478.895 137.7 479.549 137.58C480.215 137.447 480.982 137.38 481.849 137.38C482.649 137.38 483.369 137.507 484.009 137.76C484.649 138.013 485.195 138.373 485.649 138.84C486.102 139.307 486.449 139.88 486.689 140.56C486.942 141.227 487.069 141.98 487.069 142.82ZM489.106 142.82C489.106 141.9 489.239 141.1 489.506 140.42C489.773 139.727 490.126 139.153 490.566 138.7C491.006 138.247 491.513 137.907 492.086 137.68C492.659 137.453 493.246 137.34 493.846 137.34C495.246 137.34 496.319 137.78 497.066 138.66C497.813 139.527 498.186 140.853 498.186 142.64C498.186 142.72 498.186 142.827 498.186 142.96C498.186 143.08 498.179 143.193 498.166 143.3H491.046C491.126 144.38 491.439 145.2 491.986 145.76C492.533 146.32 493.386 146.6 494.546 146.6C495.199 146.6 495.746 146.547 496.186 146.44C496.639 146.32 496.979 146.207 497.206 146.1L497.466 147.66C497.239 147.78 496.839 147.907 496.266 148.04C495.706 148.173 495.066 148.24 494.346 148.24C493.439 148.24 492.653 148.107 491.986 147.84C491.333 147.56 490.793 147.18 490.366 146.7C489.939 146.22 489.619 145.653 489.406 145C489.206 144.333 489.106 143.607 489.106 142.82ZM496.246 141.8C496.259 140.96 496.046 140.273 495.606 139.74C495.179 139.193 494.586 138.92 493.826 138.92C493.399 138.92 493.019 139.007 492.686 139.18C492.366 139.34 492.093 139.553 491.866 139.82C491.639 140.087 491.459 140.393 491.326 140.74C491.206 141.087 491.126 141.44 491.086 141.8H496.246ZM502.678 146.6C502.758 146.613 502.871 146.627 503.018 146.64C503.164 146.653 503.331 146.667 503.518 146.68C503.704 146.68 503.898 146.687 504.098 146.7C504.311 146.7 504.511 146.7 504.698 146.7C505.084 146.7 505.451 146.673 505.798 146.62C506.158 146.567 506.464 146.473 506.718 146.34C506.984 146.207 507.191 146.033 507.338 145.82C507.498 145.593 507.578 145.307 507.578 144.96C507.578 144.627 507.504 144.353 507.358 144.14C507.224 143.913 507.038 143.733 506.798 143.6C506.558 143.467 506.271 143.373 505.938 143.32C505.618 143.267 505.271 143.24 504.898 143.24H502.678V146.6ZM504.658 141.86C505.018 141.86 505.344 141.84 505.638 141.8C505.944 141.747 506.204 141.66 506.418 141.54C506.644 141.42 506.818 141.26 506.938 141.06C507.071 140.86 507.138 140.607 507.138 140.3C507.138 139.98 507.058 139.727 506.898 139.54C506.738 139.353 506.524 139.213 506.258 139.12C506.004 139.013 505.711 138.947 505.378 138.92C505.058 138.88 504.731 138.86 504.398 138.86C504.091 138.86 503.778 138.867 503.458 138.88C503.151 138.893 502.891 138.907 502.678 138.92V141.86H504.658ZM504.618 148.18C503.831 148.18 503.104 148.14 502.438 148.06C501.771 147.993 501.244 147.913 500.858 147.82V137.7C501.244 137.607 501.771 137.527 502.438 137.46C503.104 137.38 503.831 137.34 504.618 137.34C505.164 137.34 505.698 137.387 506.218 137.48C506.738 137.573 507.198 137.733 507.598 137.96C507.998 138.173 508.318 138.473 508.558 138.86C508.811 139.233 508.938 139.7 508.938 140.26C508.938 140.767 508.811 141.2 508.558 141.56C508.304 141.92 507.964 142.2 507.538 142.4C508.111 142.6 508.564 142.9 508.898 143.3C509.244 143.687 509.418 144.233 509.418 144.94C509.418 145.567 509.291 146.087 509.038 146.5C508.798 146.913 508.458 147.247 508.018 147.5C507.591 147.753 507.084 147.927 506.498 148.02C505.911 148.127 505.284 148.18 504.618 148.18ZM515.635 142.86C515.275 142.86 514.922 142.873 514.575 142.9C514.242 142.913 513.942 142.953 513.675 143.02V146.6C513.755 146.613 513.868 146.627 514.015 146.64C514.175 146.653 514.342 146.667 514.515 146.68C514.702 146.68 514.888 146.687 515.075 146.7C515.262 146.7 515.428 146.7 515.575 146.7C516.388 146.7 517.015 146.547 517.455 146.24C517.895 145.933 518.115 145.44 518.115 144.76C518.115 144.427 518.042 144.14 517.895 143.9C517.762 143.66 517.575 143.467 517.335 143.32C517.108 143.16 516.848 143.047 516.555 142.98C516.262 142.9 515.955 142.86 515.635 142.86ZM511.815 137.6H513.675V141.58C513.902 141.527 514.228 141.473 514.655 141.42C515.095 141.367 515.515 141.34 515.915 141.34C516.462 141.34 516.982 141.407 517.475 141.54C517.968 141.66 518.402 141.86 518.775 142.14C519.148 142.407 519.442 142.76 519.655 143.2C519.882 143.627 519.995 144.14 519.995 144.74C519.995 145.367 519.888 145.9 519.675 146.34C519.462 146.78 519.162 147.14 518.775 147.42C518.388 147.7 517.922 147.9 517.375 148.02C516.828 148.153 516.228 148.22 515.575 148.22C514.948 148.22 514.315 148.18 513.675 148.1C513.035 148.033 512.415 147.927 511.815 147.78V137.6ZM523.775 148H521.915V137.6H523.775V148ZM526.971 148V137.6H528.831V146.46H532.671V137.6H534.531V146.46H538.371V137.6H540.231V148H526.971ZM546.956 146.66C547.396 146.66 547.783 146.653 548.116 146.64C548.463 146.613 548.749 146.573 548.976 146.52V143.42C548.843 143.353 548.623 143.3 548.316 143.26C548.023 143.207 547.663 143.18 547.236 143.18C546.956 143.18 546.656 143.2 546.336 143.24C546.029 143.28 545.743 143.367 545.476 143.5C545.223 143.62 545.009 143.793 544.836 144.02C544.663 144.233 544.576 144.52 544.576 144.88C544.576 145.547 544.789 146.013 545.216 146.28C545.643 146.533 546.223 146.66 546.956 146.66ZM546.796 137.34C547.543 137.34 548.169 137.44 548.676 137.64C549.196 137.827 549.609 138.1 549.916 138.46C550.236 138.807 550.463 139.227 550.596 139.72C550.729 140.2 550.796 140.733 550.796 141.32V147.82C550.636 147.847 550.409 147.887 550.116 147.94C549.836 147.98 549.516 148.02 549.156 148.06C548.796 148.1 548.403 148.133 547.976 148.16C547.563 148.2 547.149 148.22 546.736 148.22C546.149 148.22 545.609 148.16 545.116 148.04C544.623 147.92 544.196 147.733 543.836 147.48C543.476 147.213 543.196 146.867 542.996 146.44C542.796 146.013 542.696 145.5 542.696 144.9C542.696 144.327 542.809 143.833 543.036 143.42C543.276 143.007 543.596 142.673 543.996 142.42C544.396 142.167 544.863 141.98 545.396 141.86C545.929 141.74 546.489 141.68 547.076 141.68C547.263 141.68 547.456 141.693 547.656 141.72C547.856 141.733 548.043 141.76 548.216 141.8C548.403 141.827 548.563 141.853 548.696 141.88C548.829 141.907 548.923 141.927 548.976 141.94V141.42C548.976 141.113 548.943 140.813 548.876 140.52C548.809 140.213 548.689 139.947 548.516 139.72C548.343 139.48 548.103 139.293 547.796 139.16C547.503 139.013 547.116 138.94 546.636 138.94C546.023 138.94 545.483 138.987 545.016 139.08C544.563 139.16 544.223 139.247 543.996 139.34L543.776 137.8C544.016 137.693 544.416 137.593 544.976 137.5C545.536 137.393 546.143 137.34 546.796 137.34ZM561.225 137.6V139.16H557.845V148H555.985V139.16H552.605V137.6H561.225ZM567.083 146.7C567.87 146.7 568.49 146.547 568.943 146.24C569.396 145.933 569.623 145.44 569.623 144.76C569.623 144.427 569.556 144.14 569.423 143.9C569.29 143.66 569.103 143.467 568.863 143.32C568.636 143.16 568.37 143.047 568.063 142.98C567.756 142.9 567.43 142.86 567.083 142.86C566.723 142.86 566.35 142.873 565.963 142.9C565.59 142.913 565.27 142.953 565.003 143.02V146.6C565.083 146.613 565.203 146.627 565.363 146.64C565.523 146.653 565.696 146.667 565.883 146.68C566.083 146.68 566.283 146.687 566.483 146.7C566.696 146.7 566.896 146.7 567.083 146.7ZM563.143 147.78V137.6H565.003V141.58C565.11 141.553 565.25 141.527 565.423 141.5C565.61 141.473 565.803 141.447 566.003 141.42C566.216 141.393 566.436 141.373 566.663 141.36C566.89 141.347 567.103 141.34 567.303 141.34C567.876 141.34 568.416 141.407 568.923 141.54C569.43 141.66 569.87 141.86 570.243 142.14C570.63 142.407 570.936 142.76 571.163 143.2C571.39 143.627 571.503 144.14 571.503 144.74C571.503 145.367 571.396 145.9 571.183 146.34C570.97 146.78 570.663 147.14 570.263 147.42C569.863 147.7 569.383 147.9 568.823 148.02C568.276 148.153 567.663 148.22 566.983 148.22C566.316 148.22 565.663 148.18 565.023 148.1C564.383 148.033 563.756 147.927 563.143 147.78ZM578.598 137C579.358 136.707 580.098 136.333 580.818 135.88C581.538 135.413 582.198 134.833 582.798 134.14H584.118V148H582.258V136.72C582.098 136.867 581.898 137.02 581.658 137.18C581.432 137.34 581.178 137.493 580.898 137.64C580.632 137.787 580.345 137.927 580.038 138.06C579.745 138.193 579.458 138.307 579.178 138.4L578.598 137ZM595.967 146.08C595.834 145.76 595.654 145.353 595.427 144.86C595.214 144.367 594.981 143.833 594.727 143.26C594.474 142.687 594.201 142.1 593.907 141.5C593.627 140.887 593.361 140.313 593.107 139.78C592.854 139.233 592.614 138.747 592.387 138.32C592.174 137.893 592.001 137.567 591.867 137.34C591.721 138.913 591.601 140.62 591.507 142.46C591.414 144.287 591.334 146.133 591.267 148H589.367C589.421 146.8 589.481 145.593 589.547 144.38C589.614 143.153 589.687 141.953 589.767 140.78C589.861 139.593 589.954 138.44 590.047 137.32C590.154 136.2 590.267 135.14 590.387 134.14H592.087C592.447 134.727 592.834 135.42 593.247 136.22C593.661 137.02 594.074 137.86 594.487 138.74C594.901 139.607 595.301 140.48 595.687 141.36C596.074 142.227 596.427 143.02 596.747 143.74C597.067 143.02 597.421 142.227 597.807 141.36C598.194 140.48 598.594 139.607 599.007 138.74C599.421 137.86 599.834 137.02 600.247 136.22C600.661 135.42 601.047 134.727 601.407 134.14H603.107C603.561 138.607 603.901 143.227 604.127 148H602.227C602.161 146.133 602.081 144.287 601.987 142.46C601.894 140.62 601.774 138.913 601.627 137.34C601.494 137.567 601.314 137.893 601.087 138.32C600.874 138.747 600.641 139.233 600.387 139.78C600.134 140.313 599.861 140.887 599.567 141.5C599.287 142.1 599.021 142.687 598.767 143.26C598.514 143.833 598.274 144.367 598.047 144.86C597.834 145.353 597.661 145.76 597.527 146.08H595.967ZM609.109 135.8V139.32H610.829C611.803 139.32 612.669 139.4 613.429 139.56C614.203 139.72 614.856 139.98 615.389 140.34C615.923 140.687 616.329 141.14 616.609 141.7C616.889 142.247 617.029 142.92 617.029 143.72C617.029 145.187 616.496 146.293 615.429 147.04C614.363 147.773 612.856 148.14 610.909 148.14C610.629 148.14 610.323 148.133 609.989 148.12C609.669 148.107 609.343 148.087 609.009 148.06C608.689 148.033 608.369 148 608.049 147.96C607.729 147.92 607.436 147.867 607.169 147.8V134.14H615.729V135.8H609.109ZM611.069 146.44C611.589 146.44 612.083 146.4 612.549 146.32C613.029 146.24 613.449 146.1 613.809 145.9C614.169 145.687 614.456 145.407 614.669 145.06C614.883 144.713 614.989 144.273 614.989 143.74C614.989 143.18 614.889 142.72 614.689 142.36C614.503 142 614.229 141.713 613.869 141.5C613.509 141.287 613.063 141.14 612.529 141.06C612.009 140.967 611.416 140.92 610.749 140.92H609.109V146.38C609.256 146.393 609.429 146.407 609.629 146.42C609.803 146.433 610.009 146.44 610.249 146.44C610.489 146.44 610.763 146.44 611.069 146.44Z" fill="#FF0000"/>
</svg>
