<svg width="410" height="80" viewBox="0 0 410 80" fill="none" xmlns="http://www.w3.org/2000/svg">
<path d="M5.7 62.3C5.7 62.86 5.64667 63.4 5.54 63.92C5.44667 64.4267 5.34667 64.9533 5.24 65.5C5.72 65.2333 6.19333 64.9733 6.66 64.72C7.12667 64.4667 7.63333 64.2467 8.18 64.06L8.3 64.02L8.86 65.7L8.7 65.76C8.16667 65.96 7.63333 66.0933 7.1 66.16C6.56667 66.2133 6.02 66.26 5.46 66.3C5.9 66.6733 6.31333 67.04 6.7 67.4C7.08667 67.7467 7.44667 68.1533 7.78 68.62L7.88 68.76L6.42 69.78L6.34 69.66C6.02 69.18 5.74 68.7067 5.5 68.24C5.27333 67.76 5.04 67.2667 4.8 66.76C4.56 67.2667 4.32 67.76 4.08 68.24C3.85333 68.7067 3.58 69.18 3.26 69.66L3.18 69.78L1.72 68.76L1.82 68.62C2.15333 68.1533 2.51333 67.7467 2.9 67.4C3.28667 67.04 3.7 66.6733 4.14 66.3C3.58 66.26 3.03333 66.2133 2.5 66.16C1.96667 66.0933 1.43333 65.96 0.9 65.76L0.74 65.7L1.3 64.02L1.42 64.06C1.96667 64.2467 2.47333 64.4667 2.94 64.72C3.40667 64.9733 3.88 65.2333 4.36 65.5C4.25333 64.9533 4.14667 64.4267 4.04 63.92C3.94667 63.4 3.9 62.86 3.9 62.3V62.14H5.7V62.3ZM10.7694 69.06C10.7694 67.8733 10.9427 66.8267 11.2894 65.92C11.6494 65.0133 12.1294 64.26 12.7294 63.66C13.3427 63.0467 14.0494 62.5867 14.8494 62.28C15.6627 61.9733 16.5227 61.82 17.4294 61.82C18.3227 61.82 19.1627 61.9733 19.9494 62.28C20.7494 62.5867 21.4494 63.0467 22.0494 63.66C22.6494 64.26 23.1227 65.0133 23.4694 65.92C23.8294 66.8267 24.0094 67.8733 24.0094 69.06C24.0094 70.2467 23.8294 71.2933 23.4694 72.2C23.1227 73.1067 22.6494 73.8667 22.0494 74.48C21.4494 75.08 20.7494 75.5333 19.9494 75.84C19.1627 76.1467 18.3227 76.3 17.4294 76.3C16.5227 76.3 15.6627 76.1467 14.8494 75.84C14.0494 75.5333 13.3427 75.08 12.7294 74.48C12.1294 73.8667 11.6494 73.1067 11.2894 72.2C10.9427 71.2933 10.7694 70.2467 10.7694 69.06ZM12.8094 69.06C12.8094 69.9 12.916 70.6667 13.1294 71.36C13.3427 72.04 13.6427 72.62 14.0294 73.1C14.4294 73.58 14.9094 73.9533 15.4694 74.22C16.0427 74.4733 16.6827 74.6 17.3894 74.6C18.096 74.6 18.7294 74.4733 19.2894 74.22C19.8494 73.9533 20.3227 73.58 20.7094 73.1C21.1094 72.62 21.416 72.04 21.6294 71.36C21.8427 70.6667 21.9494 69.9 21.9494 69.06C21.9494 68.22 21.8427 67.46 21.6294 66.78C21.416 66.0867 21.1094 65.5 20.7094 65.02C20.3227 64.54 19.8494 64.1733 19.2894 63.92C18.7294 63.6533 18.096 63.52 17.3894 63.52C16.6827 63.52 16.0427 63.6533 15.4694 63.92C14.9094 64.1733 14.4294 64.54 14.0294 65.02C13.6427 65.5 13.3427 66.0867 13.1294 66.78C12.916 67.46 12.8094 68.22 12.8094 69.06ZM28.4558 66.8C28.8691 66.4667 29.3491 66.2133 29.8958 66.04C30.4558 65.8533 30.9891 65.76 31.4958 65.76C32.9891 65.76 34.1158 66.22 34.8758 67.14C35.6491 68.0467 36.0358 69.3133 36.0358 70.94C36.0358 71.6333 35.9424 72.3 35.7558 72.94C35.5691 73.58 35.2758 74.1467 34.8758 74.64C34.4891 75.1333 33.9958 75.5267 33.3958 75.82C32.7958 76.1133 32.0824 76.26 31.2558 76.26C30.3091 76.26 29.5224 76.0867 28.8958 75.74C28.2691 75.3933 27.7691 74.92 27.3958 74.32C27.0358 73.72 26.7824 73.02 26.6358 72.22C26.4891 71.42 26.4158 70.5733 26.4158 69.68C26.4158 68.52 26.4958 67.44 26.6558 66.44C26.8291 65.44 27.1358 64.56 27.5758 63.8C28.0158 63.04 28.6224 62.4133 29.3958 61.92C30.1824 61.4133 31.1891 61.0733 32.4158 60.9C32.7758 60.8467 33.0891 60.8067 33.3558 60.78C33.6358 60.74 33.8758 60.7067 34.0758 60.68C34.2891 60.6533 34.4824 60.6267 34.6558 60.6C34.8291 60.56 35.0091 60.52 35.1958 60.48L35.3958 62.16C35.3024 62.1867 35.2024 62.2067 35.0958 62.22C35.0024 62.2333 34.8624 62.2533 34.6758 62.28C34.5024 62.3067 34.2624 62.34 33.9558 62.38C33.6624 62.42 33.2758 62.4667 32.7958 62.52C31.4758 62.6667 30.4624 63.0667 29.7558 63.72C29.0491 64.3733 28.6158 65.4 28.4558 66.8ZM28.3358 69.98C28.3358 70.6067 28.3758 71.2 28.4558 71.76C28.5491 72.32 28.7024 72.8133 28.9158 73.24C29.1424 73.6667 29.4424 74.0067 29.8158 74.26C30.1891 74.5 30.6691 74.62 31.2558 74.62C31.7624 74.62 32.1958 74.5267 32.5558 74.34C32.9158 74.14 33.2091 73.8733 33.4358 73.54C33.6624 73.2067 33.8291 72.82 33.9358 72.38C34.0424 71.9267 34.0958 71.4467 34.0958 70.94C34.0958 70.4867 34.0491 70.0467 33.9558 69.62C33.8758 69.1933 33.7224 68.8133 33.4958 68.48C33.2691 68.1467 32.9624 67.88 32.5758 67.68C32.2024 67.48 31.7291 67.38 31.1558 67.38C30.5958 67.38 30.0558 67.5 29.5358 67.74C29.0291 67.98 28.6358 68.2733 28.3558 68.62C28.3424 68.7667 28.3358 68.9733 28.3358 69.24C28.3358 69.5067 28.3358 69.7533 28.3358 69.98ZM40.0703 67.16H37.3903V65.6H41.9303V69.58C42.037 69.5533 42.177 69.5267 42.3503 69.5C42.537 69.4733 42.7303 69.4467 42.9303 69.42C43.1436 69.3933 43.3636 69.3733 43.5903 69.36C43.817 69.3467 44.0303 69.34 44.2303 69.34C44.8036 69.34 45.3436 69.4067 45.8503 69.54C46.357 69.66 46.797 69.86 47.1703 70.14C47.557 70.4067 47.8636 70.76 48.0903 71.2C48.317 71.6267 48.4303 72.14 48.4303 72.74C48.4303 73.3667 48.3236 73.9 48.1103 74.34C47.897 74.78 47.5903 75.14 47.1903 75.42C46.7903 75.7 46.3103 75.9 45.7503 76.02C45.2036 76.1533 44.5903 76.22 43.9103 76.22C43.2436 76.22 42.5903 76.18 41.9503 76.1C41.3103 76.0333 40.6836 75.9267 40.0703 75.78V67.16ZM44.0103 74.7C44.797 74.7 45.417 74.5467 45.8703 74.24C46.3236 73.9333 46.5503 73.44 46.5503 72.76C46.5503 72.4267 46.4836 72.14 46.3503 71.9C46.217 71.66 46.0303 71.4667 45.7903 71.32C45.5636 71.16 45.297 71.0467 44.9903 70.98C44.6836 70.9 44.357 70.86 44.0103 70.86C43.6503 70.86 43.277 70.8733 42.8903 70.9C42.517 70.9133 42.197 70.9533 41.9303 71.02V74.6C42.0103 74.6133 42.1303 74.6267 42.2903 74.64C42.4503 74.6533 42.6236 74.6667 42.8103 74.68C43.0103 74.68 43.2103 74.6867 43.4103 74.7C43.6236 74.7 43.8236 74.7 44.0103 74.7ZM50.0434 70.82C50.0434 69.9 50.1768 69.1 50.4434 68.42C50.7101 67.7267 51.0634 67.1533 51.5034 66.7C51.9434 66.2467 52.4501 65.9067 53.0234 65.68C53.5968 65.4533 54.1834 65.34 54.7834 65.34C56.1834 65.34 57.2568 65.78 58.0034 66.66C58.7501 67.5267 59.1234 68.8533 59.1234 70.64C59.1234 70.72 59.1234 70.8267 59.1234 70.96C59.1234 71.08 59.1168 71.1933 59.1034 71.3H51.9834C52.0634 72.38 52.3768 73.2 52.9234 73.76C53.4701 74.32 54.3234 74.6 55.4834 74.6C56.1368 74.6 56.6834 74.5467 57.1234 74.44C57.5768 74.32 57.9168 74.2067 58.1434 74.1L58.4034 75.66C58.1768 75.78 57.7768 75.9067 57.2034 76.04C56.6434 76.1733 56.0034 76.24 55.2834 76.24C54.3768 76.24 53.5901 76.1067 52.9234 75.84C52.2701 75.56 51.7301 75.18 51.3034 74.7C50.8768 74.22 50.5568 73.6533 50.3434 73C50.1434 72.3333 50.0434 71.6067 50.0434 70.82ZM57.1834 69.8C57.1968 68.96 56.9834 68.2733 56.5434 67.74C56.1168 67.1933 55.5234 66.92 54.7634 66.92C54.3368 66.92 53.9568 67.0067 53.6234 67.18C53.3034 67.34 53.0301 67.5533 52.8034 67.82C52.5768 68.0867 52.3968 68.3933 52.2634 68.74C52.1434 69.0867 52.0634 69.44 52.0234 69.8H57.1834ZM52.8434 63.68C52.5368 63.68 52.2634 63.5733 52.0234 63.36C51.7968 63.1333 51.6834 62.8467 51.6834 62.5C51.6834 62.1533 51.7968 61.8733 52.0234 61.66C52.2634 61.4333 52.5368 61.32 52.8434 61.32C53.1501 61.32 53.4168 61.4333 53.6434 61.66C53.8834 61.8733 54.0034 62.1533 54.0034 62.5C54.0034 62.8467 53.8834 63.1333 53.6434 63.36C53.4168 63.5733 53.1501 63.68 52.8434 63.68ZM56.6434 63.68C56.3368 63.68 56.0634 63.5733 55.8234 63.36C55.5968 63.1333 55.4834 62.8467 55.4834 62.5C55.4834 62.1533 55.5968 61.8733 55.8234 61.66C56.0634 61.4333 56.3368 61.32 56.6434 61.32C56.9501 61.32 57.2168 61.4333 57.4434 61.66C57.6834 61.8733 57.8034 62.1533 57.8034 62.5C57.8034 62.8467 57.6834 63.1333 57.4434 63.36C57.2168 63.5733 56.9501 63.68 56.6434 63.68ZM63.7753 68.34C63.642 69.66 63.542 70.98 63.4753 72.3C63.4086 73.6067 63.3553 74.84 63.3153 76H61.5353C61.562 75.1867 61.602 74.34 61.6553 73.46C61.7086 72.5667 61.7686 71.6733 61.8353 70.78C61.902 69.8733 61.9753 68.9867 62.0553 68.12C62.1353 67.24 62.222 66.4 62.3153 65.6H64.0153C64.442 66.2933 64.942 67.2467 65.5153 68.46C66.0886 69.66 66.7486 71.0467 67.4953 72.62C68.242 71.0467 68.902 69.66 69.4753 68.46C70.0486 67.2467 70.5486 66.2933 70.9753 65.6H72.6953C72.7886 66.4 72.8753 67.24 72.9553 68.12C73.0353 68.9867 73.1086 69.8733 73.1753 70.78C73.242 71.6733 73.302 72.5667 73.3553 73.46C73.4086 74.34 73.4486 75.1867 73.4753 76H71.6353C71.5953 74.84 71.542 73.6067 71.4753 72.3C71.4086 70.98 71.3086 69.66 71.1753 68.34C70.962 68.7533 70.7153 69.2533 70.4353 69.84C70.1553 70.4133 69.8753 71 69.5953 71.6C69.3286 72.2 69.0753 72.7733 68.8353 73.32C68.5953 73.8667 68.4086 74.3 68.2753 74.62H66.7153C66.5686 74.2867 66.3686 73.8467 66.1153 73.3C65.8753 72.7533 65.6153 72.18 65.3353 71.58C65.0686 70.9667 64.7953 70.3733 64.5153 69.8C64.2353 69.2133 63.9886 68.7267 63.7753 68.34ZM82.3531 70.8C82.3531 71.3867 82.4465 71.9067 82.6331 72.36C82.8331 72.8133 83.1065 73.2 83.4531 73.52C83.7998 73.8267 84.2065 74.0667 84.6731 74.24C85.1531 74.4 85.6665 74.4867 86.2131 74.5V67.1C85.6665 67.1133 85.1531 67.2067 84.6731 67.38C84.2065 67.5533 83.7998 67.8 83.4531 68.12C83.1065 68.4267 82.8331 68.8067 82.6331 69.26C82.4465 69.7133 82.3531 70.2267 82.3531 70.8ZM88.0131 74.5C88.5598 74.4867 89.0665 74.4 89.5331 74.24C90.0131 74.0667 90.4265 73.8267 90.7731 73.52C91.1198 73.2 91.3865 72.8133 91.5731 72.36C91.7731 71.9067 91.8731 71.3867 91.8731 70.8C91.8731 70.2267 91.7731 69.7133 91.5731 69.26C91.3865 68.8067 91.1198 68.4267 90.7731 68.12C90.4265 67.8 90.0131 67.5533 89.5331 67.38C89.0665 67.2067 88.5598 67.1133 88.0131 67.1V74.5ZM88.0131 79.7H86.2131V76.06C85.4265 76.0467 84.6865 75.92 83.9931 75.68C83.2998 75.44 82.6865 75.1 82.1531 74.66C81.6331 74.2067 81.2198 73.66 80.9131 73.02C80.6065 72.3667 80.4531 71.6267 80.4531 70.8C80.4531 69.9733 80.6065 69.24 80.9131 68.6C81.2198 67.9467 81.6331 67.4 82.1531 66.96C82.6865 66.5067 83.2998 66.16 83.9931 65.92C84.6865 65.68 85.4265 65.5533 86.2131 65.54V60.8L88.0131 60.48V65.54C88.7865 65.5533 89.5198 65.68 90.2131 65.92C90.9198 66.16 91.5331 66.5067 92.0531 66.96C92.5865 67.4 93.0065 67.9467 93.3131 68.6C93.6198 69.24 93.7731 69.9733 93.7731 70.8C93.7731 71.6267 93.6198 72.3667 93.3131 73.02C93.0065 73.66 92.5865 74.2067 92.0531 74.66C91.5331 75.1 90.9198 75.44 90.2131 75.68C89.5198 75.92 88.7865 76.0467 88.0131 76.06V79.7ZM99.8856 74.66C100.326 74.66 100.712 74.6533 101.046 74.64C101.392 74.6133 101.679 74.5733 101.906 74.52V71.42C101.772 71.3533 101.552 71.3 101.246 71.26C100.952 71.2067 100.592 71.18 100.166 71.18C99.8856 71.18 99.5856 71.2 99.2656 71.24C98.959 71.28 98.6723 71.3667 98.4056 71.5C98.1523 71.62 97.939 71.7933 97.7656 72.02C97.5923 72.2333 97.5056 72.52 97.5056 72.88C97.5056 73.5467 97.719 74.0133 98.1456 74.28C98.5723 74.5333 99.1523 74.66 99.8856 74.66ZM99.7256 65.34C100.472 65.34 101.099 65.44 101.606 65.64C102.126 65.8267 102.539 66.1 102.846 66.46C103.166 66.8067 103.392 67.2267 103.526 67.72C103.659 68.2 103.726 68.7333 103.726 69.32V75.82C103.566 75.8467 103.339 75.8867 103.046 75.94C102.766 75.98 102.446 76.02 102.086 76.06C101.726 76.1 101.332 76.1333 100.906 76.16C100.492 76.2 100.079 76.22 99.6656 76.22C99.079 76.22 98.539 76.16 98.0456 76.04C97.5523 75.92 97.1256 75.7333 96.7656 75.48C96.4056 75.2133 96.1256 74.8667 95.9256 74.44C95.7256 74.0133 95.6256 73.5 95.6256 72.9C95.6256 72.3267 95.739 71.8333 95.9656 71.42C96.2056 71.0067 96.5256 70.6733 96.9256 70.42C97.3256 70.1667 97.7923 69.98 98.3256 69.86C98.859 69.74 99.419 69.68 100.006 69.68C100.192 69.68 100.386 69.6933 100.586 69.72C100.786 69.7333 100.972 69.76 101.146 69.8C101.332 69.8267 101.492 69.8533 101.626 69.88C101.759 69.9067 101.852 69.9267 101.906 69.94V69.42C101.906 69.1133 101.872 68.8133 101.806 68.52C101.739 68.2133 101.619 67.9467 101.446 67.72C101.272 67.48 101.032 67.2933 100.726 67.16C100.432 67.0133 100.046 66.94 99.5656 66.94C98.9523 66.94 98.4123 66.9867 97.9456 67.08C97.4923 67.16 97.1523 67.2467 96.9256 67.34L96.7056 65.8C96.9456 65.6933 97.3456 65.5933 97.9056 65.5C98.4656 65.3933 99.0723 65.34 99.7256 65.34ZM115.555 65.6V76H113.755V68.08C113.355 68.5867 112.915 69.18 112.435 69.86C111.955 70.54 111.475 71.2467 110.995 71.98C110.515 72.7 110.055 73.4133 109.615 74.12C109.175 74.8267 108.795 75.4533 108.475 76H106.815V65.6H108.615V73.08C108.962 72.5067 109.355 71.88 109.795 71.2C110.235 70.5067 110.688 69.8267 111.155 69.16C111.635 68.48 112.108 67.8333 112.575 67.22C113.055 66.5933 113.502 66.0533 113.915 65.6H115.555ZM111.195 63.92C110.355 63.92 109.668 63.7067 109.135 63.28C108.615 62.8533 108.302 62.26 108.195 61.5L109.615 61.12C109.722 61.5467 109.902 61.8933 110.155 62.16C110.408 62.4267 110.755 62.56 111.195 62.56C111.635 62.56 111.982 62.4267 112.235 62.16C112.488 61.8933 112.668 61.5467 112.775 61.12L114.175 61.5C114.068 62.26 113.755 62.8533 113.235 63.28C112.715 63.7067 112.035 63.92 111.195 63.92ZM122.368 67.16C122.368 67.6 122.355 68.0733 122.328 68.58C122.315 69.0733 122.282 69.5733 122.228 70.08C122.175 70.5733 122.102 71.0667 122.008 71.56C121.915 72.04 121.795 72.4933 121.648 72.92C121.502 73.3467 121.315 73.7467 121.088 74.12C120.875 74.4933 120.608 74.8267 120.288 75.12C119.968 75.4 119.595 75.64 119.168 75.84C118.742 76.0267 118.242 76.1467 117.668 76.2L117.408 74.64C118.062 74.5067 118.575 74.26 118.948 73.9C119.335 73.54 119.642 73.1 119.868 72.58C120.068 72.1267 120.215 71.6133 120.308 71.04C120.402 70.4667 120.468 69.8733 120.508 69.26C120.548 68.6333 120.568 68.0067 120.568 67.38C120.582 66.7533 120.588 66.16 120.588 65.6H127.508V76H125.648V67.16H122.368ZM134.222 74.66C134.662 74.66 135.048 74.6533 135.382 74.64C135.728 74.6133 136.015 74.5733 136.242 74.52V71.42C136.108 71.3533 135.888 71.3 135.582 71.26C135.288 71.2067 134.928 71.18 134.502 71.18C134.222 71.18 133.922 71.2 133.602 71.24C133.295 71.28 133.008 71.3667 132.742 71.5C132.488 71.62 132.275 71.7933 132.102 72.02C131.928 72.2333 131.842 72.52 131.842 72.88C131.842 73.5467 132.055 74.0133 132.482 74.28C132.908 74.5333 133.488 74.66 134.222 74.66ZM134.062 65.34C134.808 65.34 135.435 65.44 135.942 65.64C136.462 65.8267 136.875 66.1 137.182 66.46C137.502 66.8067 137.728 67.2267 137.862 67.72C137.995 68.2 138.062 68.7333 138.062 69.32V75.82C137.902 75.8467 137.675 75.8867 137.382 75.94C137.102 75.98 136.782 76.02 136.422 76.06C136.062 76.1 135.668 76.1333 135.242 76.16C134.828 76.2 134.415 76.22 134.002 76.22C133.415 76.22 132.875 76.16 132.382 76.04C131.888 75.92 131.462 75.7333 131.102 75.48C130.742 75.2133 130.462 74.8667 130.262 74.44C130.062 74.0133 129.962 73.5 129.962 72.9C129.962 72.3267 130.075 71.8333 130.302 71.42C130.542 71.0067 130.862 70.6733 131.262 70.42C131.662 70.1667 132.128 69.98 132.662 69.86C133.195 69.74 133.755 69.68 134.342 69.68C134.528 69.68 134.722 69.6933 134.922 69.72C135.122 69.7333 135.308 69.76 135.482 69.8C135.668 69.8267 135.828 69.8533 135.962 69.88C136.095 69.9067 136.188 69.9267 136.242 69.94V69.42C136.242 69.1133 136.208 68.8133 136.142 68.52C136.075 68.2133 135.955 67.9467 135.782 67.72C135.608 67.48 135.368 67.2933 135.062 67.16C134.768 67.0133 134.382 66.94 133.902 66.94C133.288 66.94 132.748 66.9867 132.282 67.08C131.828 67.16 131.488 67.2467 131.262 67.34L131.042 65.8C131.282 65.6933 131.682 65.5933 132.242 65.5C132.802 65.3933 133.408 65.34 134.062 65.34ZM154.3 76H152.44V71.4H147.64V76H145.78V65.6H147.64V69.84H152.44V65.6H154.3V76ZM156.918 70.82C156.918 69.9 157.052 69.1 157.318 68.42C157.585 67.7267 157.938 67.1533 158.378 66.7C158.818 66.2467 159.325 65.9067 159.898 65.68C160.472 65.4533 161.058 65.34 161.658 65.34C163.058 65.34 164.132 65.78 164.878 66.66C165.625 67.5267 165.998 68.8533 165.998 70.64C165.998 70.72 165.998 70.8267 165.998 70.96C165.998 71.08 165.992 71.1933 165.978 71.3H158.858C158.938 72.38 159.252 73.2 159.798 73.76C160.345 74.32 161.198 74.6 162.358 74.6C163.012 74.6 163.558 74.5467 163.998 74.44C164.452 74.32 164.792 74.2067 165.018 74.1L165.278 75.66C165.052 75.78 164.652 75.9067 164.078 76.04C163.518 76.1733 162.878 76.24 162.158 76.24C161.252 76.24 160.465 76.1067 159.798 75.84C159.145 75.56 158.605 75.18 158.178 74.7C157.752 74.22 157.432 73.6533 157.218 73C157.018 72.3333 156.918 71.6067 156.918 70.82ZM164.058 69.8C164.072 68.96 163.858 68.2733 163.418 67.74C162.992 67.1933 162.398 66.92 161.638 66.92C161.212 66.92 160.832 67.0067 160.498 67.18C160.178 67.34 159.905 67.5533 159.678 67.82C159.452 68.0867 159.272 68.3933 159.138 68.74C159.018 69.0867 158.938 69.44 158.898 69.8H164.058ZM172.019 74.48H173.139C173.579 73.84 173.926 73.18 174.179 72.5C174.446 71.82 174.646 71.12 174.779 70.4C174.913 69.6667 174.999 68.9067 175.039 68.12C175.079 67.32 175.106 66.48 175.119 65.6H181.939V74.48H183.339V78.9H181.579V76H173.779V78.9H172.019V74.48ZM180.079 74.48V67.16H176.819C176.806 67.7867 176.773 68.42 176.719 69.06C176.666 69.6867 176.579 70.3133 176.459 70.94C176.339 71.5533 176.166 72.16 175.939 72.76C175.726 73.3467 175.453 73.92 175.119 74.48H180.079ZM194.53 70.8C194.53 71.6267 194.41 72.3733 194.17 73.04C193.93 73.7067 193.59 74.28 193.15 74.76C192.723 75.24 192.21 75.6133 191.61 75.88C191.01 76.1333 190.357 76.26 189.65 76.26C188.943 76.26 188.29 76.1333 187.69 75.88C187.09 75.6133 186.57 75.24 186.13 74.76C185.703 74.28 185.37 73.7067 185.13 73.04C184.89 72.3733 184.77 71.6267 184.77 70.8C184.77 69.9867 184.89 69.2467 185.13 68.58C185.37 67.9 185.703 67.32 186.13 66.84C186.57 66.36 187.09 65.9933 187.69 65.74C188.29 65.4733 188.943 65.34 189.65 65.34C190.357 65.34 191.01 65.4733 191.61 65.74C192.21 65.9933 192.723 66.36 193.15 66.84C193.59 67.32 193.93 67.9 194.17 68.58C194.41 69.2467 194.53 69.9867 194.53 70.8ZM192.59 70.8C192.59 69.6267 192.323 68.7 191.79 68.02C191.27 67.3267 190.557 66.98 189.65 66.98C188.743 66.98 188.023 67.3267 187.49 68.02C186.97 68.7 186.71 69.6267 186.71 70.8C186.71 71.9733 186.97 72.9067 187.49 73.6C188.023 74.28 188.743 74.62 189.65 74.62C190.557 74.62 191.27 74.28 191.79 73.6C192.323 72.9067 192.59 71.9733 192.59 70.8ZM200.767 67.16C200.767 67.6 200.754 68.0733 200.727 68.58C200.714 69.0733 200.68 69.5733 200.627 70.08C200.574 70.5733 200.5 71.0667 200.407 71.56C200.314 72.04 200.194 72.4933 200.047 72.92C199.9 73.3467 199.714 73.7467 199.487 74.12C199.274 74.4933 199.007 74.8267 198.687 75.12C198.367 75.4 197.994 75.64 197.567 75.84C197.14 76.0267 196.64 76.1467 196.067 76.2L195.807 74.64C196.46 74.5067 196.974 74.26 197.347 73.9C197.734 73.54 198.04 73.1 198.267 72.58C198.467 72.1267 198.614 71.6133 198.707 71.04C198.8 70.4667 198.867 69.8733 198.907 69.26C198.947 68.6333 198.967 68.0067 198.967 67.38C198.98 66.7533 198.987 66.16 198.987 65.6H205.907V76H204.047V67.16H200.767ZM221.92 65.6C221.653 65.9333 221.353 66.3 221.02 66.7C220.687 67.0867 220.34 67.4933 219.98 67.92C219.62 68.3333 219.253 68.7467 218.88 69.16C218.52 69.5733 218.173 69.9667 217.84 70.34C218.24 70.7267 218.653 71.1467 219.08 71.6C219.507 72.0533 219.92 72.5267 220.32 73.02C220.733 73.5 221.127 74 221.5 74.52C221.873 75.0267 222.2 75.52 222.48 76H220.4C220.12 75.56 219.793 75.1 219.42 74.62C219.06 74.1267 218.68 73.6533 218.28 73.2C217.893 72.7467 217.5 72.3267 217.1 71.94C216.713 71.54 216.353 71.2133 216.02 70.96V76H214.24V70.96C213.907 71.2133 213.54 71.54 213.14 71.94C212.753 72.3267 212.36 72.7467 211.96 73.2C211.573 73.6533 211.193 74.1267 210.82 74.62C210.46 75.1 210.14 75.56 209.86 76H207.8C208.08 75.52 208.4 75.0267 208.76 74.52C209.133 74.0133 209.52 73.52 209.92 73.04C210.333 72.5467 210.753 72.0733 211.18 71.62C211.607 71.1667 212.02 70.7467 212.42 70.36C212.087 69.9867 211.733 69.5933 211.36 69.18C211 68.7667 210.64 68.3533 210.28 67.94C209.92 67.5133 209.573 67.1067 209.24 66.72C208.907 66.32 208.6 65.9467 208.32 65.6H210.38C210.86 66.2 211.413 66.8667 212.04 67.6C212.667 68.3333 213.4 69.18 214.24 70.14V65.6H216.02V70.14C216.86 69.18 217.593 68.3333 218.22 67.6C218.847 66.8667 219.4 66.2 219.88 65.6H221.92ZM223.247 70.82C223.247 69.9 223.38 69.1 223.647 68.42C223.913 67.7267 224.267 67.1533 224.707 66.7C225.147 66.2467 225.653 65.9067 226.227 65.68C226.8 65.4533 227.387 65.34 227.987 65.34C229.387 65.34 230.46 65.78 231.207 66.66C231.953 67.5267 232.327 68.8533 232.327 70.64C232.327 70.72 232.327 70.8267 232.327 70.96C232.327 71.08 232.32 71.1933 232.307 71.3H225.187C225.267 72.38 225.58 73.2 226.127 73.76C226.673 74.32 227.527 74.6 228.687 74.6C229.34 74.6 229.887 74.5467 230.327 74.44C230.78 74.32 231.12 74.2067 231.347 74.1L231.607 75.66C231.38 75.78 230.98 75.9067 230.407 76.04C229.847 76.1733 229.207 76.24 228.487 76.24C227.58 76.24 226.793 76.1067 226.127 75.84C225.473 75.56 224.933 75.18 224.507 74.7C224.08 74.22 223.76 73.6533 223.547 73C223.347 72.3333 223.247 71.6067 223.247 70.82ZM230.387 69.8C230.4 68.96 230.187 68.2733 229.747 67.74C229.32 67.1933 228.727 66.92 227.967 66.92C227.54 66.92 227.16 67.0067 226.827 67.18C226.507 67.34 226.233 67.5533 226.007 67.82C225.78 68.0867 225.6 68.3933 225.467 68.74C225.347 69.0867 225.267 69.44 225.227 69.8H230.387ZM243.518 76H241.658V71.4H236.858V76H234.998V65.6H236.858V69.84H241.658V65.6H243.518V76ZM259.706 76H257.846V67.16H253.206V76H251.346V65.6H259.706V76ZM270.129 70.82C270.129 69.6067 269.829 68.6733 269.229 68.02C268.629 67.3667 267.829 67.04 266.829 67.04C266.269 67.04 265.829 67.06 265.509 67.1C265.202 67.14 264.955 67.1867 264.769 67.24V73.8C264.995 73.9867 265.322 74.1667 265.749 74.34C266.175 74.5133 266.642 74.6 267.149 74.6C267.682 74.6 268.135 74.5067 268.509 74.32C268.895 74.12 269.209 73.8533 269.449 73.52C269.689 73.1733 269.862 72.7733 269.969 72.32C270.075 71.8533 270.129 71.3533 270.129 70.82ZM272.069 70.82C272.069 71.6067 271.962 72.3333 271.749 73C271.549 73.6667 271.249 74.24 270.849 74.72C270.449 75.2 269.955 75.5733 269.369 75.84C268.795 76.1067 268.135 76.24 267.389 76.24C266.789 76.24 266.255 76.16 265.789 76C265.335 75.84 264.995 75.6867 264.769 75.54V79.7H262.909V65.92C263.349 65.8133 263.895 65.7 264.549 65.58C265.215 65.4467 265.982 65.38 266.849 65.38C267.649 65.38 268.369 65.5067 269.009 65.76C269.649 66.0133 270.195 66.3733 270.649 66.84C271.102 67.3067 271.449 67.88 271.689 68.56C271.942 69.2267 272.069 69.98 272.069 70.82ZM274.106 70.82C274.106 69.9 274.239 69.1 274.506 68.42C274.773 67.7267 275.126 67.1533 275.566 66.7C276.006 66.2467 276.513 65.9067 277.086 65.68C277.659 65.4533 278.246 65.34 278.846 65.34C280.246 65.34 281.319 65.78 282.066 66.66C282.813 67.5267 283.186 68.8533 283.186 70.64C283.186 70.72 283.186 70.8267 283.186 70.96C283.186 71.08 283.179 71.1933 283.166 71.3H276.046C276.126 72.38 276.439 73.2 276.986 73.76C277.533 74.32 278.386 74.6 279.546 74.6C280.199 74.6 280.746 74.5467 281.186 74.44C281.639 74.32 281.979 74.2067 282.206 74.1L282.466 75.66C282.239 75.78 281.839 75.9067 281.266 76.04C280.706 76.1733 280.066 76.24 279.346 76.24C278.439 76.24 277.653 76.1067 276.986 75.84C276.333 75.56 275.793 75.18 275.366 74.7C274.939 74.22 274.619 73.6533 274.406 73C274.206 72.3333 274.106 71.6067 274.106 70.82ZM281.246 69.8C281.259 68.96 281.046 68.2733 280.606 67.74C280.179 67.1933 279.586 66.92 278.826 66.92C278.399 66.92 278.019 67.0067 277.686 67.18C277.366 67.34 277.093 67.5533 276.866 67.82C276.639 68.0867 276.459 68.3933 276.326 68.74C276.206 69.0867 276.126 69.44 276.086 69.8H281.246ZM287.678 74.6C287.758 74.6133 287.871 74.6267 288.018 74.64C288.164 74.6533 288.331 74.6667 288.518 74.68C288.704 74.68 288.898 74.6867 289.098 74.7C289.311 74.7 289.511 74.7 289.698 74.7C290.084 74.7 290.451 74.6733 290.798 74.62C291.158 74.5667 291.464 74.4733 291.718 74.34C291.984 74.2067 292.191 74.0333 292.338 73.82C292.498 73.5933 292.578 73.3067 292.578 72.96C292.578 72.6267 292.504 72.3533 292.358 72.14C292.224 71.9133 292.038 71.7333 291.798 71.6C291.558 71.4667 291.271 71.3733 290.938 71.32C290.618 71.2667 290.271 71.24 289.898 71.24H287.678V74.6ZM289.658 69.86C290.018 69.86 290.344 69.84 290.638 69.8C290.944 69.7467 291.204 69.66 291.418 69.54C291.644 69.42 291.818 69.26 291.938 69.06C292.071 68.86 292.138 68.6067 292.138 68.3C292.138 67.98 292.058 67.7267 291.898 67.54C291.738 67.3533 291.524 67.2133 291.258 67.12C291.004 67.0133 290.711 66.9467 290.378 66.92C290.058 66.88 289.731 66.86 289.398 66.86C289.091 66.86 288.778 66.8667 288.458 66.88C288.151 66.8933 287.891 66.9067 287.678 66.92V69.86H289.658ZM289.618 76.18C288.831 76.18 288.104 76.14 287.438 76.06C286.771 75.9933 286.244 75.9133 285.858 75.82V65.7C286.244 65.6067 286.771 65.5267 287.438 65.46C288.104 65.38 288.831 65.34 289.618 65.34C290.164 65.34 290.698 65.3867 291.218 65.48C291.738 65.5733 292.198 65.7333 292.598 65.96C292.998 66.1733 293.318 66.4733 293.558 66.86C293.811 67.2333 293.938 67.7 293.938 68.26C293.938 68.7667 293.811 69.2 293.558 69.56C293.304 69.92 292.964 70.2 292.538 70.4C293.111 70.6 293.564 70.9 293.898 71.3C294.244 71.6867 294.418 72.2333 294.418 72.94C294.418 73.5667 294.291 74.0867 294.038 74.5C293.798 74.9133 293.458 75.2467 293.018 75.5C292.591 75.7533 292.084 75.9267 291.498 76.02C290.911 76.1267 290.284 76.18 289.618 76.18ZM300.635 70.86C300.275 70.86 299.922 70.8733 299.575 70.9C299.242 70.9133 298.942 70.9533 298.675 71.02V74.6C298.755 74.6133 298.868 74.6267 299.015 74.64C299.175 74.6533 299.342 74.6667 299.515 74.68C299.702 74.68 299.888 74.6867 300.075 74.7C300.262 74.7 300.428 74.7 300.575 74.7C301.388 74.7 302.015 74.5467 302.455 74.24C302.895 73.9333 303.115 73.44 303.115 72.76C303.115 72.4267 303.042 72.14 302.895 71.9C302.762 71.66 302.575 71.4667 302.335 71.32C302.108 71.16 301.848 71.0467 301.555 70.98C301.262 70.9 300.955 70.86 300.635 70.86ZM296.815 65.6H298.675V69.58C298.902 69.5267 299.228 69.4733 299.655 69.42C300.095 69.3667 300.515 69.34 300.915 69.34C301.462 69.34 301.982 69.4067 302.475 69.54C302.968 69.66 303.402 69.86 303.775 70.14C304.148 70.4067 304.442 70.76 304.655 71.2C304.882 71.6267 304.995 72.14 304.995 72.74C304.995 73.3667 304.888 73.9 304.675 74.34C304.462 74.78 304.162 75.14 303.775 75.42C303.388 75.7 302.922 75.9 302.375 76.02C301.828 76.1533 301.228 76.22 300.575 76.22C299.948 76.22 299.315 76.18 298.675 76.1C298.035 76.0333 297.415 75.9267 296.815 75.78V65.6ZM308.775 76H306.915V65.6H308.775V76ZM311.971 76V65.6H313.831V74.46H317.671V65.6H319.531V74.46H323.371V65.6H325.231V76H311.971ZM331.956 74.66C332.396 74.66 332.783 74.6533 333.116 74.64C333.463 74.6133 333.749 74.5733 333.976 74.52V71.42C333.843 71.3533 333.623 71.3 333.316 71.26C333.023 71.2067 332.663 71.18 332.236 71.18C331.956 71.18 331.656 71.2 331.336 71.24C331.029 71.28 330.743 71.3667 330.476 71.5C330.223 71.62 330.009 71.7933 329.836 72.02C329.663 72.2333 329.576 72.52 329.576 72.88C329.576 73.5467 329.789 74.0133 330.216 74.28C330.643 74.5333 331.223 74.66 331.956 74.66ZM331.796 65.34C332.543 65.34 333.169 65.44 333.676 65.64C334.196 65.8267 334.609 66.1 334.916 66.46C335.236 66.8067 335.463 67.2267 335.596 67.72C335.729 68.2 335.796 68.7333 335.796 69.32V75.82C335.636 75.8467 335.409 75.8867 335.116 75.94C334.836 75.98 334.516 76.02 334.156 76.06C333.796 76.1 333.403 76.1333 332.976 76.16C332.563 76.2 332.149 76.22 331.736 76.22C331.149 76.22 330.609 76.16 330.116 76.04C329.623 75.92 329.196 75.7333 328.836 75.48C328.476 75.2133 328.196 74.8667 327.996 74.44C327.796 74.0133 327.696 73.5 327.696 72.9C327.696 72.3267 327.809 71.8333 328.036 71.42C328.276 71.0067 328.596 70.6733 328.996 70.42C329.396 70.1667 329.863 69.98 330.396 69.86C330.929 69.74 331.489 69.68 332.076 69.68C332.263 69.68 332.456 69.6933 332.656 69.72C332.856 69.7333 333.043 69.76 333.216 69.8C333.403 69.8267 333.563 69.8533 333.696 69.88C333.829 69.9067 333.923 69.9267 333.976 69.94V69.42C333.976 69.1133 333.943 68.8133 333.876 68.52C333.809 68.2133 333.689 67.9467 333.516 67.72C333.343 67.48 333.103 67.2933 332.796 67.16C332.503 67.0133 332.116 66.94 331.636 66.94C331.023 66.94 330.483 66.9867 330.016 67.08C329.563 67.16 329.223 67.2467 328.996 67.34L328.776 65.8C329.016 65.6933 329.416 65.5933 329.976 65.5C330.536 65.3933 331.143 65.34 331.796 65.34ZM346.225 65.6V67.16H342.845V76H340.985V67.16H337.605V65.6H346.225ZM352.083 74.7C352.87 74.7 353.49 74.5467 353.943 74.24C354.396 73.9333 354.623 73.44 354.623 72.76C354.623 72.4267 354.556 72.14 354.423 71.9C354.29 71.66 354.103 71.4667 353.863 71.32C353.636 71.16 353.37 71.0467 353.063 70.98C352.756 70.9 352.43 70.86 352.083 70.86C351.723 70.86 351.35 70.8733 350.963 70.9C350.59 70.9133 350.27 70.9533 350.003 71.02V74.6C350.083 74.6133 350.203 74.6267 350.363 74.64C350.523 74.6533 350.696 74.6667 350.883 74.68C351.083 74.68 351.283 74.6867 351.483 74.7C351.696 74.7 351.896 74.7 352.083 74.7ZM348.143 75.78V65.6H350.003V69.58C350.11 69.5533 350.25 69.5267 350.423 69.5C350.61 69.4733 350.803 69.4467 351.003 69.42C351.216 69.3933 351.436 69.3733 351.663 69.36C351.89 69.3467 352.103 69.34 352.303 69.34C352.876 69.34 353.416 69.4067 353.923 69.54C354.43 69.66 354.87 69.86 355.243 70.14C355.63 70.4067 355.936 70.76 356.163 71.2C356.39 71.6267 356.503 72.14 356.503 72.74C356.503 73.3667 356.396 73.9 356.183 74.34C355.97 74.78 355.663 75.14 355.263 75.42C354.863 75.7 354.383 75.9 353.823 76.02C353.276 76.1533 352.663 76.22 351.983 76.22C351.316 76.22 350.663 76.18 350.023 76.1C349.383 76.0333 348.756 75.9267 348.143 75.78ZM363.598 65C364.358 64.7067 365.098 64.3333 365.818 63.88C366.538 63.4133 367.198 62.8333 367.798 62.14H369.118V76H367.258V64.72C367.098 64.8667 366.898 65.02 366.658 65.18C366.432 65.34 366.178 65.4933 365.898 65.64C365.632 65.7867 365.345 65.9267 365.038 66.06C364.745 66.1933 364.458 66.3067 364.178 66.4L363.598 65ZM380.967 74.08C380.834 73.76 380.654 73.3533 380.427 72.86C380.214 72.3667 379.981 71.8333 379.727 71.26C379.474 70.6867 379.201 70.1 378.907 69.5C378.627 68.8867 378.361 68.3133 378.107 67.78C377.854 67.2333 377.614 66.7467 377.387 66.32C377.174 65.8933 377.001 65.5667 376.867 65.34C376.721 66.9133 376.601 68.62 376.507 70.46C376.414 72.2867 376.334 74.1333 376.267 76H374.367C374.421 74.8 374.481 73.5933 374.547 72.38C374.614 71.1533 374.687 69.9533 374.767 68.78C374.861 67.5933 374.954 66.44 375.047 65.32C375.154 64.2 375.267 63.14 375.387 62.14H377.087C377.447 62.7267 377.834 63.42 378.247 64.22C378.661 65.02 379.074 65.86 379.487 66.74C379.901 67.6067 380.301 68.48 380.687 69.36C381.074 70.2267 381.427 71.02 381.747 71.74C382.067 71.02 382.421 70.2267 382.807 69.36C383.194 68.48 383.594 67.6067 384.007 66.74C384.421 65.86 384.834 65.02 385.247 64.22C385.661 63.42 386.047 62.7267 386.407 62.14H388.107C388.561 66.6067 388.901 71.2267 389.127 76H387.227C387.161 74.1333 387.081 72.2867 386.987 70.46C386.894 68.62 386.774 66.9133 386.627 65.34C386.494 65.5667 386.314 65.8933 386.087 66.32C385.874 66.7467 385.641 67.2333 385.387 67.78C385.134 68.3133 384.861 68.8867 384.567 69.5C384.287 70.1 384.021 70.6867 383.767 71.26C383.514 71.8333 383.274 72.3667 383.047 72.86C382.834 73.3533 382.661 73.76 382.527 74.08H380.967ZM394.109 63.8V67.32H395.829C396.803 67.32 397.669 67.4 398.429 67.56C399.203 67.72 399.856 67.98 400.389 68.34C400.923 68.6867 401.329 69.14 401.609 69.7C401.889 70.2467 402.029 70.92 402.029 71.72C402.029 73.1867 401.496 74.2933 400.429 75.04C399.363 75.7733 397.856 76.14 395.909 76.14C395.629 76.14 395.323 76.1333 394.989 76.12C394.669 76.1067 394.343 76.0867 394.009 76.06C393.689 76.0333 393.369 76 393.049 75.96C392.729 75.92 392.436 75.8667 392.169 75.8V62.14H400.729V63.8H394.109ZM396.069 74.44C396.589 74.44 397.083 74.4 397.549 74.32C398.029 74.24 398.449 74.1 398.809 73.9C399.169 73.6867 399.456 73.4067 399.669 73.06C399.883 72.7133 399.989 72.2733 399.989 71.74C399.989 71.18 399.889 70.72 399.689 70.36C399.503 70 399.229 69.7133 398.869 69.5C398.509 69.2867 398.063 69.14 397.529 69.06C397.009 68.9667 396.416 68.92 395.749 68.92H394.109V74.38C394.256 74.3933 394.429 74.4067 394.629 74.42C394.803 74.4333 395.009 74.44 395.249 74.44C395.489 74.44 395.763 74.44 396.069 74.44Z" fill="#FF0000"/>
<path d="M196.5 12C193.75 12 191.5 14.25 191.5 17C191.5 19.75 193.75 22 196.5 22C199.25 22 201.5 19.75 201.5 17" stroke="#FF0000" stroke-width="3" stroke-linecap="round" stroke-linejoin="round"/>
<path d="M179 29.475V34.5C179 47 184 52 196.5 52H211.5C224 52 229 47 229 34.5V22" stroke="#FF0000" stroke-width="3" stroke-linecap="round" stroke-linejoin="round"/>
<path d="M206.5 2H196.5C184 2 179 7 179 19.5" stroke="#FF0000" stroke-width="3" stroke-linecap="round" stroke-linejoin="round"/>
<path d="M213.375 9.50006H227.125" stroke="#FF0000" stroke-width="3" stroke-linecap="round"/>
<path d="M220.25 16.375V2.62503" stroke="#FF0000" stroke-width="3" stroke-linecap="round"/>
<path d="M180.675 44.3751L193 36.1001C194.975 34.7751 197.825 34.9251 199.6 36.4501L200.425 37.1751C202.375 38.8501 205.525 38.8501 207.475 37.1751L217.875 28.2501C219.825 26.5751 222.975 26.5751 224.925 28.2501L229 31.7501" stroke="#FF0000" stroke-width="3" stroke-linecap="round" stroke-linejoin="round"/>
</svg>
